<?xml version="1.0" ?><svg xmlns="http://www.w3.org/2000/svg" viewBox="0 0 32 32"><g id="_12_arrow-circle-broken-up-right" data-name="12 arrow-circle-broken-up-right"><rect x="4.04" y="17.47" width="19" height="2" transform="translate(-9.1 14.99) rotate(-45)"/><path d="M21.53,20l-2-.12L20,12l-7.89.46-.12-2,7.9-.46a2,2,0,0,1,1.53.58A2,2,0,0,1,22,12.14Z"/><path d="M16,29a13.21,13.21,0,0,1-3.34-.44l.52-1.93A11,11,0,0,0,23.79,8.22a11,11,0,0,0-15.55,0A11,11,0,0,0,5.39,18.85l-1.93.51A13,13,0,1,1,16,29Z"/></g></svg>